<svg t="1716089409409" class="icon" viewBox="0 0 1024 1024" version="1.1" xmlns="http://www.w3.org/2000/svg" p-id="1453"
    width="200" height="200">
    <path
        d="M164.765089 846.656943l0-25.582655c79.817883 0 97.214089-19.442818 97.214089-59.35176l0-556.678572c0-56.281841-15.349593-68.561515-97.214089-68.561515l0-25.582655 259.919774 0 0 25.582655c-76.747965 0-98.237395 12.279674-98.237395 66.514903l0 317.224922 349.97072-316.201615c8.18645-9.209756 14.326287-18.419512 14.326287-28.652574 0-20.466124-25.582655-38.885636-98.237395-38.885636l0-25.582655 249.686712 0 0 25.582655c-44.002167 0-70.608128 19.442818-117.680213 63.444984l-206.707852 187.265034 255.82655 374.530069c30.699186 49.118698 40.932248 59.35176 112.563682 59.35176l0 25.582655-274.246061 0 0-25.582655c61.398372 0 99.260701-4.093225 99.260701-27.629267 0-5.116531-3.069919-12.279674-7.163143-20.466124l-232.290507-344.854189-145.30948 133.029806 0 201.591321c0 38.885636 17.396205 58.328453 98.237395 58.328453l0 25.582655L164.765089 846.656943z"
        fill="#ffb6c1" p-id="1454"></path>
</svg>