<svg t="1706796938695" class="icon" viewBox="0 0 1024 1024" version="1.1"
    xmlns="http://www.w3.org/2000/svg" p-id="9699" width="200" height="200">
    <path
        d="M323.490909 744.727273L279.272727 947.2c-4.654545 18.618182-23.272727 30.254545-41.890909 25.6-18.618182-4.654545-30.254545-23.272727-25.6-41.890909l41.890909-186.181818H69.818182c-18.618182 0-34.909091-16.290909-34.909091-34.909091S51.2 674.909091 69.818182 674.909091h195.490909l69.818182-325.818182H162.909091c-18.618182 0-34.909091-16.290909-34.909091-34.909091S144.290909 279.272727 162.909091 279.272727h188.509091L395.636364 76.8c4.654545-18.618182 23.272727-30.254545 41.890909-25.6 18.618182 4.654545 30.254545 23.272727 25.6 41.890909l-41.890909 186.181818H674.909091l46.545454-202.472727c4.654545-18.618182 23.272727-30.254545 41.89091-25.6 18.618182 4.654545 30.254545 23.272727 25.6 41.890909l-41.89091 186.181818H954.181818c18.618182 0 34.909091 16.290909 34.909091 34.909091S972.8 349.090909 954.181818 349.090909h-218.763636l-69.818182 325.818182H861.090909c18.618182 0 34.909091 16.290909 34.909091 34.909091S879.709091 744.727273 861.090909 744.727273h-211.781818L605.090909 947.2c-4.654545 18.618182-23.272727 30.254545-41.890909 25.6-18.618182-4.654545-30.254545-23.272727-25.6-41.890909l41.890909-186.181818h-256z m13.963636-69.818182h253.672728l69.818182-325.818182H409.6l-72.145455 325.818182z"
        fill="#00b0f0" p-id="9700"></path>
</svg>