<svg t="1706796820820" class="icon" viewBox="0 0 1024 1024" version="1.1"
    xmlns="http://www.w3.org/2000/svg" p-id="8654" width="200" height="200">
    <path
        d="M930.687749 1023.991H640.837013c-51.559597 0-93.303271-65.655487-93.303271-117.217084V641.499988c0-51.561597 41.742674-93.364271 93.303271-93.36427h289.850736A93.364271 93.364271 0 0 1 1023.99202 641.499988v289.067742A93.364271 93.364271 0 0 1 930.687749 1023.992z m45.356646-379.117038a47.585628 47.585628 0 0 0-47.585629-47.646628H642.764998a47.585628 47.585628 0 0 0-47.585628 47.645628v285.934766c0 26.322794 21.322833 47.705627 47.585628 47.705627h285.693768c26.261795 0 47.585628-21.382833 47.585629-47.705627V644.872962z m-45.356646-168.95868H640.837013c-51.559597 0-93.303271-65.655487-93.303271-117.279084V93.42627A93.364271 93.364271 0 0 1 640.837013 0h289.850736A93.364271 93.364271 0 0 1 1023.99202 93.42427v289.067742a93.364271 93.364271 0 0 1-93.303271 93.42327z m45.356646-379.118038a47.585628 47.585628 0 0 0-47.585629-47.645628H642.764998a47.585628 47.585628 0 0 0-47.585628 47.645628v285.934766a47.585628 47.585628 0 0 0 47.585628 47.645628h285.693768a47.585628 47.585628 0 0 0 47.585629-47.645628V96.797244z m-592.890368 927.193756H93.364291C41.742694 1023.991 0.00002 958.335513 0.00002 906.773916V641.499988c0-51.561597 41.742674-93.364271 93.364271-93.36427h289.789736a93.364271 93.364271 0 0 1 93.303271 93.36427v289.067742A93.364271 93.364271 0 0 1 383.154027 1023.992z m45.356645-379.117038a47.585628 47.585628 0 0 0-47.645628-47.646628H95.231276a47.645628 47.645628 0 0 0-47.645628 47.645628v285.934766c0 26.322794 21.382833 47.705627 47.645628 47.705627h285.633768a47.705627 47.705627 0 0 0 47.645628-47.705627V644.872962z m-45.356645-168.95868H93.364291C41.742694 475.916282 0.00002 410.259795 0.00002 358.637198V93.42627A93.364271 93.364271 0 0 1 93.364291 0h289.789736a93.364271 93.364271 0 0 1 93.303271 93.42427v289.067742a93.364271 93.364271 0 0 1-93.303271 93.42327z m45.356645-379.118038a47.585628 47.585628 0 0 0-47.645628-47.645628H95.231276a47.645628 47.645628 0 0 0-47.645628 47.645628v285.934766c0 26.322794 21.382833 47.645628 47.645628 47.645628h285.633768a47.585628 47.585628 0 0 0 47.645628-47.645628V96.797244z"
        fill="#0df" p-id="8655"></path>
</svg>