<svg t="1706623031736" class="icon" viewBox="0 0 1024 1024" version="1.1"
    xmlns="http://www.w3.org/2000/svg" p-id="7353" width="200" height="200">
    <path
        d="M574.49931 859.453793c-8.474483 1.588966-16.242759-4.766897-16.948965-13.417931-0.882759-8.297931-1.235862-16.772414-1.235862-25.070345 0-146.184828 118.466207-264.827586 264.827586-264.827586 8.474483 0 16.948966 0.353103 25.070345 1.235862 8.474483 0.882759 14.830345 8.651034 13.417931 16.948966-26.129655 144.772414-140.535172 259.177931-285.131035 285.131034M512 622.344828c-48.728276 0-88.275862-39.547586-88.275862-88.275862s39.547586-88.275862 88.275862-88.275863 88.275862 39.547586 88.275862 88.275863-39.547586 88.275862-88.275862 88.275862m-45.373793 223.691034c-0.882759 8.474483-8.651034 14.830345-16.948966 13.417931-144.772414-25.953103-259.001379-140.358621-284.954482-284.954483-1.588966-8.474483 4.766897-16.242759 13.417931-16.948965 8.297931-0.882759 16.772414-1.235862 25.070344-1.235862 146.184828 0 264.827586 118.466207 264.827587 264.827586-0.176552 8.297931-0.529655 16.595862-1.412414 24.893793M169.313103 427.078621C207.448276 273.302069 346.571034 158.896552 512 158.896552c165.428966 0 304.551724 114.405517 342.686897 268.182069 3.001379 11.828966-9.004138 21.715862-20.303449 16.948965A838.567724 838.567724 0 0 0 512 379.586207a831.417379 831.417379 0 0 0-322.383448 64.441379c-11.122759 4.766897-23.128276-5.12-20.303449-16.948965m783.713104 78.035862C949.318621 264.651034 753.346207 70.797241 512 70.797241S74.681379 264.651034 70.797241 505.114483c0 2.295172-0.176552 4.590345-0.176551 6.885517 0 6.885517 0.176552 13.771034 0.529655 20.656552 0.176552 3.884138 0.529655 7.768276 0.706207 11.828965l0.529655 7.591724c0.529655 6.17931 1.235862 12.182069 2.118621 18.36138C100.634483 767.293793 256.706207 923.365517 453.561379 949.318621c0.882759 0.176552 1.765517 0.176552 2.824828 0.353103 5.12 0.706207 10.416552 1.235862 15.536552 1.765517l7.591724 0.529656c3.884138 0.353103 7.768276 0.529655 11.652414 0.882758a403.261793 403.261793 0 0 0 41.313103 0c3.884138-0.176552 7.768276-0.529655 11.828966-0.882758l7.591724-0.529656c6.17931-0.529655 12.182069-1.235862 18.361379-2.11862 197.031724-25.953103 353.103448-182.024828 379.056552-379.056552 0.176552-0.882759 0.176552-1.942069 0.353103-2.824828 0.706207-5.12 1.235862-10.416552 1.765517-15.536551l0.529656-7.591724c0.353103-3.884138 0.529655-7.768276 0.882758-11.828966 0.353103-6.885517 0.529655-13.594483 0.529655-20.656552-0.176552-2.118621-0.176552-4.413793-0.353103-6.708965"
        fill="#0df" p-id="7354"></path>
</svg>